<svg xmlns="http://www.w3.org/2000/svg" xmlns:xlink="http://www.w3.org/1999/xlink" contentStyleType="text/css" height="733px" preserveAspectRatio="none" style="width:682px;height:733px;background:#FFFFFF;" version="1.1" viewBox="0 0 682 733" width="682px" zoomAndPan="magnify"><defs/><g><!--class chef--><g id="elem_chef"><rect codeLine="5" fill="#FFFFFF" height="190.6719" id="chef" rx="2.5" ry="2.5" style="stroke:#000000;stroke-width:1.0;" width="218" x="256" y="399"/><ellipse cx="345.25" cy="413" fill="#FFFFFF" rx="9" ry="9" style="stroke:#000000;stroke-width:1.0;"/><path d="M347.5938,408.6719 C346.6563,408.2344 346.0625,408.0938 345.1875,408.0938 C342.5625,408.0938 340.5625,410.1719 340.5625,412.8906 L340.5625,414.0156 C340.5625,416.5938 342.6719,418.4844 345.5625,418.4844 C346.7813,418.4844 347.9375,418.1875 348.6875,417.6406 C349.2656,417.2344 349.5938,416.7813 349.5938,416.3906 C349.5938,415.9375 349.2031,415.5469 348.7344,415.5469 C348.5156,415.5469 348.3125,415.625 348.125,415.8125 C347.6719,416.2969 347.6719,416.2969 347.4844,416.3906 C347.0625,416.6563 346.375,416.7813 345.6094,416.7813 C343.5625,416.7813 342.2656,415.6875 342.2656,413.9844 L342.2656,412.8906 C342.2656,411.1094 343.5156,409.7969 345.25,409.7969 C345.8281,409.7969 346.4375,409.9531 346.9063,410.2031 C347.3906,410.4844 347.5625,410.7031 347.6563,411.1094 C347.7188,411.5156 347.75,411.6406 347.8906,411.7656 C348.0313,411.9063 348.2656,412.0156 348.4844,412.0156 C348.75,412.0156 349.0156,411.875 349.1875,411.6563 C349.2969,411.5 349.3281,411.3125 349.3281,410.8906 L349.3281,409.4688 C349.3281,409.0313 349.3125,408.9063 349.2188,408.75 C349.0625,408.4844 348.7813,408.3438 348.4844,408.3438 C348.1875,408.3438 347.9844,408.4375 347.7656,408.75 L347.5938,408.6719 Z " fill="#000000"/><text fill="#000000" font-family="Verdana" font-size="14" lengthAdjust="spacing" textLength="32" x="362.75" y="417.8467">chef</text><line style="stroke:#000000;stroke-width:1.0;" x1="257" x2="473" y1="427" y2="427"/><text fill="#000000" font-family="Verdana" font-size="14" lengthAdjust="spacing" textLength="170" x="262" y="443.9951">fecha_nacimiento: date</text><text fill="#000000" font-family="Verdana" font-size="14" lengthAdjust="spacing" textLength="114" x="262" y="460.292">codigo: smallint</text><line style="stroke:#000000;stroke-width:1.0;" x1="257" x2="473" y1="467.5938" y2="467.5938"/><text fill="#000000" font-family="Verdana" font-size="14" lengthAdjust="spacing" textLength="147" x="262" y="484.5889">nombre: varchar(30)</text><text fill="#000000" font-family="Verdana" font-size="14" lengthAdjust="spacing" textLength="156" x="262" y="500.8857">apellido1: varchar(30)</text><text fill="#000000" font-family="Verdana" font-size="14" lengthAdjust="spacing" textLength="155" x="262" y="517.1826">apellido2: varchar(30)</text><text fill="#000000" font-family="Verdana" font-size="14" lengthAdjust="spacing" textLength="206" x="262" y="533.4795">nombreartistico: varchar(40)</text><text fill="#000000" font-family="Verdana" font-size="14" lengthAdjust="spacing" textLength="92" x="262" y="549.7764">sexo: char(1)</text><text fill="#000000" font-family="Verdana" font-size="14" lengthAdjust="spacing" textLength="153" x="262" y="566.0732">localidad: varchar(50)</text><text fill="#000000" font-family="Verdana" font-size="14" lengthAdjust="spacing" textLength="157" x="262" y="582.3701">cod_provincia: char(2)</text></g><!--class editorial--><g id="elem_editorial"><rect codeLine="16" fill="#FFFFFF" height="76.5938" id="editorial" rx="2.5" ry="2.5" style="stroke:#000000;stroke-width:1.0;" width="167" x="53.5" y="456"/><ellipse cx="103.25" cy="470" fill="#FFFFFF" rx="9" ry="9" style="stroke:#000000;stroke-width:1.0;"/><path d="M105.5938,465.6719 C104.6563,465.2344 104.0625,465.0938 103.1875,465.0938 C100.5625,465.0938 98.5625,467.1719 98.5625,469.8906 L98.5625,471.0156 C98.5625,473.5938 100.6719,475.4844 103.5625,475.4844 C104.7813,475.4844 105.9375,475.1875 106.6875,474.6406 C107.2656,474.2344 107.5938,473.7813 107.5938,473.3906 C107.5938,472.9375 107.2031,472.5469 106.7344,472.5469 C106.5156,472.5469 106.3125,472.625 106.125,472.8125 C105.6719,473.2969 105.6719,473.2969 105.4844,473.3906 C105.0625,473.6563 104.375,473.7813 103.6094,473.7813 C101.5625,473.7813 100.2656,472.6875 100.2656,470.9844 L100.2656,469.8906 C100.2656,468.1094 101.5156,466.7969 103.25,466.7969 C103.8281,466.7969 104.4375,466.9531 104.9063,467.2031 C105.3906,467.4844 105.5625,467.7031 105.6563,468.1094 C105.7188,468.5156 105.75,468.6406 105.8906,468.7656 C106.0313,468.9063 106.2656,469.0156 106.4844,469.0156 C106.75,469.0156 107.0156,468.875 107.1875,468.6563 C107.2969,468.5 107.3281,468.3125 107.3281,467.8906 L107.3281,466.4688 C107.3281,466.0313 107.3125,465.9063 107.2188,465.75 C107.0625,465.4844 106.7813,465.3438 106.4844,465.3438 C106.1875,465.3438 105.9844,465.4375 105.7656,465.75 L105.5938,465.6719 Z " fill="#000000"/><text fill="#000000" font-family="Verdana" font-size="14" lengthAdjust="spacing" textLength="60" x="120.75" y="474.8467">editorial</text><line style="stroke:#000000;stroke-width:1.0;" x1="54.5" x2="219.5" y1="484" y2="484"/><text fill="#000000" font-family="Verdana" font-size="14" lengthAdjust="spacing" textLength="114" x="59.5" y="500.9951">codigo: smallint</text><line style="stroke:#000000;stroke-width:1.0;" x1="54.5" x2="219.5" y1="508.2969" y2="508.2969"/><text fill="#000000" font-family="Verdana" font-size="14" lengthAdjust="spacing" textLength="155" x="59.5" y="525.292">nombre: varchar(120)</text></g><!--class grupo--><g id="elem_grupo"><rect codeLine="20" fill="#FFFFFF" height="76.5938" id="grupo" rx="2.5" ry="2.5" style="stroke:#000000;stroke-width:1.0;" width="158" x="509" y="456"/><ellipse cx="563.25" cy="470" fill="#FFFFFF" rx="9" ry="9" style="stroke:#000000;stroke-width:1.0;"/><path d="M565.5938,465.6719 C564.6563,465.2344 564.0625,465.0938 563.1875,465.0938 C560.5625,465.0938 558.5625,467.1719 558.5625,469.8906 L558.5625,471.0156 C558.5625,473.5938 560.6719,475.4844 563.5625,475.4844 C564.7813,475.4844 565.9375,475.1875 566.6875,474.6406 C567.2656,474.2344 567.5938,473.7813 567.5938,473.3906 C567.5938,472.9375 567.2031,472.5469 566.7344,472.5469 C566.5156,472.5469 566.3125,472.625 566.125,472.8125 C565.6719,473.2969 565.6719,473.2969 565.4844,473.3906 C565.0625,473.6563 564.375,473.7813 563.6094,473.7813 C561.5625,473.7813 560.2656,472.6875 560.2656,470.9844 L560.2656,469.8906 C560.2656,468.1094 561.5156,466.7969 563.25,466.7969 C563.8281,466.7969 564.4375,466.9531 564.9063,467.2031 C565.3906,467.4844 565.5625,467.7031 565.6563,468.1094 C565.7188,468.5156 565.75,468.6406 565.8906,468.7656 C566.0313,468.9063 566.2656,469.0156 566.4844,469.0156 C566.75,469.0156 567.0156,468.875 567.1875,468.6563 C567.2969,468.5 567.3281,468.3125 567.3281,467.8906 L567.3281,466.4688 C567.3281,466.0313 567.3125,465.9063 567.2188,465.75 C567.0625,465.4844 566.7813,465.3438 566.4844,465.3438 C566.1875,465.3438 565.9844,465.4375 565.7656,465.75 L565.5938,465.6719 Z " fill="#000000"/><text fill="#000000" font-family="Verdana" font-size="14" lengthAdjust="spacing" textLength="42" x="580.75" y="474.8467">grupo</text><line style="stroke:#000000;stroke-width:1.0;" x1="510" x2="666" y1="484" y2="484"/><text fill="#000000" font-family="Verdana" font-size="14" lengthAdjust="spacing" textLength="105" x="515" y="500.9951">codigo: tinyint</text><line style="stroke:#000000;stroke-width:1.0;" x1="510" x2="666" y1="508.2969" y2="508.2969"/><text fill="#000000" font-family="Verdana" font-size="14" lengthAdjust="spacing" textLength="146" x="515" y="525.292">nombre: varchar(40)</text></g><!--class ingrediente--><g id="elem_ingrediente"><rect codeLine="24" fill="#FFFFFF" height="76.5938" id="ingrediente" rx="2.5" ry="2.5" style="stroke:#000000;stroke-width:1.0;" width="158" x="287" y="221.5"/><ellipse cx="320.7" cy="235.5" fill="#FFFFFF" rx="9" ry="9" style="stroke:#000000;stroke-width:1.0;"/><path d="M323.0438,231.1719 C322.1063,230.7344 321.5125,230.5938 320.6375,230.5938 C318.0125,230.5938 316.0125,232.6719 316.0125,235.3906 L316.0125,236.5156 C316.0125,239.0938 318.1219,240.9844 321.0125,240.9844 C322.2313,240.9844 323.3875,240.6875 324.1375,240.1406 C324.7156,239.7344 325.0438,239.2813 325.0438,238.8906 C325.0438,238.4375 324.6531,238.0469 324.1844,238.0469 C323.9656,238.0469 323.7625,238.125 323.575,238.3125 C323.1219,238.7969 323.1219,238.7969 322.9344,238.8906 C322.5125,239.1563 321.825,239.2813 321.0594,239.2813 C319.0125,239.2813 317.7156,238.1875 317.7156,236.4844 L317.7156,235.3906 C317.7156,233.6094 318.9656,232.2969 320.7,232.2969 C321.2781,232.2969 321.8875,232.4531 322.3563,232.7031 C322.8406,232.9844 323.0125,233.2031 323.1063,233.6094 C323.1688,234.0156 323.2,234.1406 323.3406,234.2656 C323.4813,234.4063 323.7156,234.5156 323.9344,234.5156 C324.2,234.5156 324.4656,234.375 324.6375,234.1563 C324.7469,234 324.7781,233.8125 324.7781,233.3906 L324.7781,231.9688 C324.7781,231.5313 324.7625,231.4063 324.6688,231.25 C324.5125,230.9844 324.2313,230.8438 323.9344,230.8438 C323.6375,230.8438 323.4344,230.9375 323.2156,231.25 L323.0438,231.1719 Z " fill="#000000"/><text fill="#000000" font-family="Verdana" font-size="14" lengthAdjust="spacing" textLength="84" x="337.3" y="240.3467">ingrediente</text><line style="stroke:#000000;stroke-width:1.0;" x1="288" x2="444" y1="249.5" y2="249.5"/><text fill="#000000" font-family="Verdana" font-size="14" lengthAdjust="spacing" textLength="114" x="293" y="266.4951">codigo: smallint</text><line style="stroke:#000000;stroke-width:1.0;" x1="288" x2="444" y1="273.7969" y2="273.7969"/><text fill="#000000" font-family="Verdana" font-size="14" lengthAdjust="spacing" textLength="146" x="293" y="290.792">nombre: varchar(40)</text></g><!--class libro--><g id="elem_libro"><rect codeLine="28" fill="#FFFFFF" height="125.4844" id="libro" rx="2.5" ry="2.5" style="stroke:#000000;stroke-width:1.0;" width="171" x="61.5" y="197.5"/><ellipse cx="126.75" cy="211.5" fill="#FFFFFF" rx="9" ry="9" style="stroke:#000000;stroke-width:1.0;"/><path d="M129.0938,207.1719 C128.1563,206.7344 127.5625,206.5938 126.6875,206.5938 C124.0625,206.5938 122.0625,208.6719 122.0625,211.3906 L122.0625,212.5156 C122.0625,215.0938 124.1719,216.9844 127.0625,216.9844 C128.2813,216.9844 129.4375,216.6875 130.1875,216.1406 C130.7656,215.7344 131.0938,215.2813 131.0938,214.8906 C131.0938,214.4375 130.7031,214.0469 130.2344,214.0469 C130.0156,214.0469 129.8125,214.125 129.625,214.3125 C129.1719,214.7969 129.1719,214.7969 128.9844,214.8906 C128.5625,215.1563 127.875,215.2813 127.1094,215.2813 C125.0625,215.2813 123.7656,214.1875 123.7656,212.4844 L123.7656,211.3906 C123.7656,209.6094 125.0156,208.2969 126.75,208.2969 C127.3281,208.2969 127.9375,208.4531 128.4063,208.7031 C128.8906,208.9844 129.0625,209.2031 129.1563,209.6094 C129.2188,210.0156 129.25,210.1406 129.3906,210.2656 C129.5313,210.4063 129.7656,210.5156 129.9844,210.5156 C130.25,210.5156 130.5156,210.375 130.6875,210.1563 C130.7969,210 130.8281,209.8125 130.8281,209.3906 L130.8281,207.9688 C130.8281,207.5313 130.8125,207.4063 130.7188,207.25 C130.5625,206.9844 130.2813,206.8438 129.9844,206.8438 C129.6875,206.8438 129.4844,206.9375 129.2656,207.25 L129.0938,207.1719 Z " fill="#000000"/><text fill="#000000" font-family="Verdana" font-size="14" lengthAdjust="spacing" textLength="33" x="144.25" y="216.3467">libro</text><line style="stroke:#000000;stroke-width:1.0;" x1="62.5" x2="231.5" y1="225.5" y2="225.5"/><text fill="#000000" font-family="Verdana" font-size="14" lengthAdjust="spacing" textLength="159" x="67.5" y="242.4951">cod_editorial: smallint</text><text fill="#000000" font-family="Verdana" font-size="14" lengthAdjust="spacing" textLength="131" x="67.5" y="258.792">cod_chef: smallint</text><text fill="#000000" font-family="Verdana" font-size="14" lengthAdjust="spacing" textLength="121" x="67.5" y="275.0889">paginas: smallint</text><text fill="#000000" font-family="Verdana" font-size="14" lengthAdjust="spacing" textLength="114" x="67.5" y="291.3857">codigo: smallint</text><line style="stroke:#000000;stroke-width:1.0;" x1="62.5" x2="231.5" y1="298.6875" y2="298.6875"/><text fill="#000000" font-family="Verdana" font-size="14" lengthAdjust="spacing" textLength="137" x="67.5" y="315.6826">titulo: varchar(120)</text></g><!--class provincia--><g id="elem_provincia"><rect codeLine="35" fill="#FFFFFF" height="76.5938" id="provincia" rx="2.5" ry="2.5" style="stroke:#000000;stroke-width:1.0;" width="158" x="286" y="650"/><ellipse cx="328.25" cy="664" fill="#FFFFFF" rx="9" ry="9" style="stroke:#000000;stroke-width:1.0;"/><path d="M330.5938,659.6719 C329.6563,659.2344 329.0625,659.0938 328.1875,659.0938 C325.5625,659.0938 323.5625,661.1719 323.5625,663.8906 L323.5625,665.0156 C323.5625,667.5938 325.6719,669.4844 328.5625,669.4844 C329.7813,669.4844 330.9375,669.1875 331.6875,668.6406 C332.2656,668.2344 332.5938,667.7813 332.5938,667.3906 C332.5938,666.9375 332.2031,666.5469 331.7344,666.5469 C331.5156,666.5469 331.3125,666.625 331.125,666.8125 C330.6719,667.2969 330.6719,667.2969 330.4844,667.3906 C330.0625,667.6563 329.375,667.7813 328.6094,667.7813 C326.5625,667.7813 325.2656,666.6875 325.2656,664.9844 L325.2656,663.8906 C325.2656,662.1094 326.5156,660.7969 328.25,660.7969 C328.8281,660.7969 329.4375,660.9531 329.9063,661.2031 C330.3906,661.4844 330.5625,661.7031 330.6563,662.1094 C330.7188,662.5156 330.75,662.6406 330.8906,662.7656 C331.0313,662.9063 331.2656,663.0156 331.4844,663.0156 C331.75,663.0156 332.0156,662.875 332.1875,662.6563 C332.2969,662.5 332.3281,662.3125 332.3281,661.8906 L332.3281,660.4688 C332.3281,660.0313 332.3125,659.9063 332.2188,659.75 C332.0625,659.4844 331.7813,659.3438 331.4844,659.3438 C331.1875,659.3438 330.9844,659.4375 330.7656,659.75 L330.5938,659.6719 Z " fill="#000000"/><text fill="#000000" font-family="Verdana" font-size="14" lengthAdjust="spacing" textLength="66" x="345.75" y="668.8467">provincia</text><line style="stroke:#000000;stroke-width:1.0;" x1="287" x2="443" y1="678" y2="678"/><line style="stroke:#000000;stroke-width:1.0;" x1="287" x2="443" y1="686" y2="686"/><text fill="#000000" font-family="Verdana" font-size="14" lengthAdjust="spacing" textLength="146" x="292" y="702.9951">nombre: varchar(40)</text><text fill="#000000" font-family="Verdana" font-size="14" lengthAdjust="spacing" textLength="106" x="292" y="719.292">codigo: char(2)</text></g><!--class receta--><g id="elem_receta"><rect codeLine="39" fill="#FFFFFF" height="158.0781" id="receta" rx="2.5" ry="2.5" style="stroke:#000000;stroke-width:1.0;" width="195" x="480.5" y="181"/><ellipse cx="550.75" cy="195" fill="#FFFFFF" rx="9" ry="9" style="stroke:#000000;stroke-width:1.0;"/><path d="M553.0938,190.6719 C552.1563,190.2344 551.5625,190.0938 550.6875,190.0938 C548.0625,190.0938 546.0625,192.1719 546.0625,194.8906 L546.0625,196.0156 C546.0625,198.5938 548.1719,200.4844 551.0625,200.4844 C552.2813,200.4844 553.4375,200.1875 554.1875,199.6406 C554.7656,199.2344 555.0938,198.7813 555.0938,198.3906 C555.0938,197.9375 554.7031,197.5469 554.2344,197.5469 C554.0156,197.5469 553.8125,197.625 553.625,197.8125 C553.1719,198.2969 553.1719,198.2969 552.9844,198.3906 C552.5625,198.6563 551.875,198.7813 551.1094,198.7813 C549.0625,198.7813 547.7656,197.6875 547.7656,195.9844 L547.7656,194.8906 C547.7656,193.1094 549.0156,191.7969 550.75,191.7969 C551.3281,191.7969 551.9375,191.9531 552.4063,192.2031 C552.8906,192.4844 553.0625,192.7031 553.1563,193.1094 C553.2188,193.5156 553.25,193.6406 553.3906,193.7656 C553.5313,193.9063 553.7656,194.0156 553.9844,194.0156 C554.25,194.0156 554.5156,193.875 554.6875,193.6563 C554.7969,193.5 554.8281,193.3125 554.8281,192.8906 L554.8281,191.4688 C554.8281,191.0313 554.8125,190.9063 554.7188,190.75 C554.5625,190.4844 554.2813,190.3438 553.9844,190.3438 C553.6875,190.3438 553.4844,190.4375 553.2656,190.75 L553.0938,190.6719 Z " fill="#000000"/><text fill="#000000" font-family="Verdana" font-size="14" lengthAdjust="spacing" textLength="47" x="568.25" y="199.8467">receta</text><line style="stroke:#000000;stroke-width:1.0;" x1="481.5" x2="674.5" y1="209" y2="209"/><text fill="#000000" font-family="Verdana" font-size="14" lengthAdjust="spacing" textLength="132" x="486.5" y="225.9951">cod_grupo: tinyint</text><text fill="#000000" font-family="Verdana" font-size="14" lengthAdjust="spacing" textLength="110" x="486.5" y="242.292">tiempo: tinyint</text><text fill="#000000" font-family="Verdana" font-size="14" lengthAdjust="spacing" textLength="131" x="486.5" y="258.5889">cod_chef: smallint</text><text fill="#000000" font-family="Verdana" font-size="14" lengthAdjust="spacing" textLength="114" x="486.5" y="274.8857">codigo: smallint</text><line style="stroke:#000000;stroke-width:1.0;" x1="481.5" x2="674.5" y1="282.1875" y2="282.1875"/><text fill="#000000" font-family="Verdana" font-size="14" lengthAdjust="spacing" textLength="155" x="486.5" y="299.1826">nombre: varchar(120)</text><text fill="#000000" font-family="Verdana" font-size="14" lengthAdjust="spacing" textLength="148" x="486.5" y="315.4795">dificultad: varchar(7)</text><text fill="#000000" font-family="Verdana" font-size="14" lengthAdjust="spacing" textLength="183" x="486.5" y="331.7764">elaboracion: varchar(300)</text></g><!--class receta_ingrediente--><g id="elem_receta_ingrediente"><rect codeLine="48" fill="#FFFFFF" height="109.1875" id="receta_ingrediente" rx="2.5" ry="2.5" style="stroke:#000000;stroke-width:1.0;" width="195" x="374.5" y="12"/><ellipse cx="400.55" cy="26" fill="#FFFFFF" rx="9" ry="9" style="stroke:#000000;stroke-width:1.0;"/><path d="M402.8938,21.6719 C401.9563,21.2344 401.3625,21.0938 400.4875,21.0938 C397.8625,21.0938 395.8625,23.1719 395.8625,25.8906 L395.8625,27.0156 C395.8625,29.5938 397.9719,31.4844 400.8625,31.4844 C402.0813,31.4844 403.2375,31.1875 403.9875,30.6406 C404.5656,30.2344 404.8938,29.7813 404.8938,29.3906 C404.8938,28.9375 404.5031,28.5469 404.0344,28.5469 C403.8156,28.5469 403.6125,28.625 403.425,28.8125 C402.9719,29.2969 402.9719,29.2969 402.7844,29.3906 C402.3625,29.6563 401.675,29.7813 400.9094,29.7813 C398.8625,29.7813 397.5656,28.6875 397.5656,26.9844 L397.5656,25.8906 C397.5656,24.1094 398.8156,22.7969 400.55,22.7969 C401.1281,22.7969 401.7375,22.9531 402.2063,23.2031 C402.6906,23.4844 402.8625,23.7031 402.9563,24.1094 C403.0188,24.5156 403.05,24.6406 403.1906,24.7656 C403.3313,24.9063 403.5656,25.0156 403.7844,25.0156 C404.05,25.0156 404.3156,24.875 404.4875,24.6563 C404.5969,24.5 404.6281,24.3125 404.6281,23.8906 L404.6281,22.4688 C404.6281,22.0313 404.6125,21.9063 404.5188,21.75 C404.3625,21.4844 404.0813,21.3438 403.7844,21.3438 C403.4875,21.3438 403.2844,21.4375 403.0656,21.75 L402.8938,21.6719 Z " fill="#000000"/><text fill="#000000" font-family="Verdana" font-size="14" lengthAdjust="spacing" textLength="138" x="415.45" y="30.8467">receta_ingrediente</text><line style="stroke:#000000;stroke-width:1.0;" x1="375.5" x2="568.5" y1="40" y2="40"/><text fill="#000000" font-family="Verdana" font-size="14" lengthAdjust="spacing" textLength="128" x="380.5" y="56.9951">cantidad: smallint</text><text fill="#000000" font-family="Verdana" font-size="14" lengthAdjust="spacing" textLength="146" x="380.5" y="73.292">cod_receta: smallint</text><text fill="#000000" font-family="Verdana" font-size="14" lengthAdjust="spacing" textLength="183" x="380.5" y="89.5889">cod_ingrediente: smallint</text><line style="stroke:#000000;stroke-width:1.0;" x1="375.5" x2="568.5" y1="96.8906" y2="96.8906"/><text fill="#000000" font-family="Verdana" font-size="14" lengthAdjust="spacing" textLength="142" x="380.5" y="113.8857">medida: varchar(40)</text></g><!--link chef to provincia--><g id="link_chef_provincia"><path codeLine="55" d="M365,590.079 C365,611.312 365,614.6352 365,631.9789 " fill="none" id="chef-to-provincia" style="stroke:#595959;stroke-width:1.0;"/><polygon fill="none" points="365,649.9789,371,631.9789,359,631.9789,365,649.9789" style="stroke:#595959;stroke-width:1.0;"/><text fill="#000000" font-family="Verdana" font-size="13" lengthAdjust="spacing" textLength="135" x="229" y="616.0959">cod_provincia:codigo</text></g><!--link libro to chef--><g id="link_libro_chef"><path codeLine="56" d="M232.79,311 C254.355,311 271.5,311 271.5,311 C271.5,311 271.5,336.401 271.5,380.988 " fill="none" id="libro-to-chef" style="stroke:#595959;stroke-width:1.0;"/><polygon fill="none" points="271.5,398.988,277.5,380.988,265.5,380.988,271.5,398.988" style="stroke:#595959;stroke-width:1.0;"/><text fill="#000000" font-family="Verdana" font-size="13" lengthAdjust="spacing" textLength="105" x="165.5" y="348.7059">cod_chef:codigo</text></g><!--link libro to editorial--><g id="link_libro_editorial"><path codeLine="57" d="M141,322.534 C141,364.865 141,401.463 141,437.658 " fill="none" id="libro-to-editorial" style="stroke:#595959;stroke-width:1.0;"/><polygon fill="none" points="141,455.658,147,437.658,135,437.658,141,455.658" style="stroke:#595959;stroke-width:1.0;"/><text fill="#000000" font-family="Verdana" font-size="13" lengthAdjust="spacing" textLength="128" x="12" y="385.1629">cod_editorial:codigo</text></g><!--link receta to chef--><g id="link_receta_chef"><path codeLine="58" d="M480.413,331 C467.984,331 459.5,331 459.5,331 C459.5,331 459.5,345.139 459.5,380.918 " fill="none" id="receta-to-chef" style="stroke:#595959;stroke-width:1.0;"/><polygon fill="none" points="459.5,398.918,465.5,380.918,453.5,380.918,459.5,398.918" style="stroke:#595959;stroke-width:1.0;"/><text fill="#000000" font-family="Verdana" font-size="13" lengthAdjust="spacing" textLength="105" x="353.5" y="350.5699">cod_chef:codigo</text></g><!--link receta to grupo--><g id="link_receta_grupo"><path codeLine="59" d="M588,339.064 C588,378.422 588,406.223 588,437.863 " fill="none" id="receta-to-grupo" style="stroke:#595959;stroke-width:1.0;"/><polygon fill="none" points="588,455.863,594,437.863,582,437.863,588,455.863" style="stroke:#595959;stroke-width:1.0;"/><text fill="#000000" font-family="Verdana" font-size="13" lengthAdjust="spacing" textLength="114" x="473" y="393.5309">cod_grupo:codigo</text></g><!--link receta_ingrediente to ingrediente--><g id="link_receta_ingrediente_ingrediente"><path codeLine="60" d="M409.75,121.173 C409.75,153.136 409.75,174.708 409.75,203.415 " fill="none" id="receta_ingrediente-to-ingrediente" style="stroke:#595959;stroke-width:1.0;"/><polygon fill="none" points="409.75,221.415,415.75,203.415,403.75,203.415,409.75,221.415" style="stroke:#595959;stroke-width:1.0;"/><text fill="#000000" font-family="Verdana" font-size="13" lengthAdjust="spacing" textLength="149" x="259.75" y="167.3609">cod_ingrediente:codigo</text></g><!--link receta_ingrediente to receta--><g id="link_receta_ingrediente_receta"><path codeLine="61" d="M525,121.173 C525,139.725 525,142.841 525,162.907 " fill="none" id="receta_ingrediente-to-receta" style="stroke:#595959;stroke-width:1.0;"/><polygon fill="none" points="525,180.907,531,162.907,519,162.907,525,180.907" style="stroke:#595959;stroke-width:1.0;"/><text fill="#000000" font-family="Verdana" font-size="13" lengthAdjust="spacing" textLength="118" x="406" y="147.1069">cod_receta:codigo</text></g><!--SRC=[hPDjJy8m4CVVxrDKVIE99e0I8r_5w79q1rpiUajt48tnkrlMmZPM11F7A-vwltlwtvMiiKHL6I2R2LTAM2rOX4jLa4Cjn3QhtybMuA1KXYpAPuMAdQmvoxI1kbPwZKlrbIcbB9SBXtEr1QVNu6uVngET6IeqXWgUdFHC1vw00YTK2sbk_O_1N-E7DpQMIMDOel-JMz1K4bhnpW84Tnx36dmIA5h8B40q5tdbU4jM4qJQTE-XbMVK9VW2hMJViLaiIDWHc7J7a-duz_YLsrISZdtiXmhPpsuasPNpsNrlU57y8BMXXOkfXMHZE5bsVkYmWuYktQRxrWfMPA4UF4rNS9ZrHGtirx6Fzdf4WRDppviHj_FpreAMf3T6kX9u6eL1O7dq60qis7aTiUsgikKFft2ouL1oFbYT1Yj1aLrCwTyKa9f77a33ZNJ8lVHPSvH7t_tBpUnvzxjh3lxr_arrLdBuvkgwVnYXlUii2EWyCv4xCflH_HNNdjmnhfNgdXarybybNeeBLvt21J7sUJqz97cz1prUT-5_fIQwYTGehmZy0G00]--></g></svg>